<svg xmlns="http://www.w3.org/2000/svg" xml:space="preserve" id="Layer_1" x="0" y="0" viewBox="0 0 4809.7 606"><style>.st0{fill:#229e82}.st1{fill:#f78f35}.st4{fill:#808285}</style><path d="M507.8 99.7C509.7 16.6 542.6.4 542.6.4s-71.4-2.4-87.1 5c-72.8 26.6-84.3 108.4-84.4 161.1v.3-.3c.1-7.8-.6-155.3-159.3-165.6C207 .6 0 .4 0 .4s33.2 16.2 34.9 99.3v250.9c5.2-56 30.3-122.6 90.8-199.1 51.7 65.4 77.6 123.6 87.2 174.1 36.8-30.6 87.6-56.6 157.7-72 0 0 8 95.8-31.5 184 44.6-11.5 97.6-13.7 160-.1 4.7-16.6 7.8-34 8.8-52z" class="st0"/><path d="M119.2 552.5c-2-50.3 4.7-152.6 93.7-226.9-9.7-50.5-35.5-108.7-87.2-174.1C65.2 228 40.1 294.6 34.9 350.6c0 0-15.2 120 84.3 201.9" class="st1"/><path d="M370.6 253.6c-70.1 15.5-120.9 41.4-157.7 72-89.1 74.3-95.8 176.6-93.7 226.9 2.5 2.5 37.3 25.2 37.3 25.2 27.4-44.5 84.6-114.8 182.6-140.1 39.6-88.2 31.5-184 31.5-184" style="fill:#fcb53e"/><path d="M339.1 437.6c-98 25.3-155.3 95.6-182.6 140.1.1 0 .3.1.4.2 57.9 32.2 118.5 28 118.5 28 106.2-.1 195.7-71.2 223.7-168.4-62.4-13.7-115.4-11.4-160 .1" style="fill:#ffca43"/><path d="M1523.6 188.3v-6.2h-53.2v6.2c10 2.7 13.2 8.3 13.2 14.8 0 8.5-3.5 17.3-7.4 27.5l-31.8 83.6-50.1-120c-3.2-7.1-10.6-12.1-19.2-12.1h-46.6v6.1c14.9 1.7 21.9 11.9 30.3 32.5l67.3 162h7.4l64.7-162c7.2-18.1 13.7-29.2 25.4-32.4M1701.3 363.8c-3.4-5.1-10.7-22-10.7-22l-65.3-159.7h-27.4l-63.6 162.3c-6.9 17.6-13.3 28.7-24.2 32.2v6.1h46.1v-6.1c-9.1-2-11.1-5.7-11.1-11.3 0-7.1 3.1-13.8 5.9-20.9l12.3-30h71.1l23.1 56.1c3.4 7.4 10.9 11.8 19.5 12.3h44.8v-6.1c-8.8-.9-15.1-4.7-20.5-12.9m-131.5-67.3 27.7-71.9 29.6 71.9zM1291.4 349.1c0-26.1.1-145.3 0-145.7-.7-11.9-11-21.3-23.5-21.3h-41.2v6.1c14.9 2.8 17.6 12.7 17.6 32.1v127.8c-.5 16.8-4.1 25.8-17.9 28.4v6.1h83v-6.1c-13.7-2.5-17.3-11.2-18-27.4M800.9 188.2c14.8 2.8 17.6 12.7 17.6 32.1v112c-17.6 19.2-36.9 28.6-56.5 28.6-27 0-36.9-15.1-36.9-47.7V203.4c-.7-11.9-11-21.3-23.5-21.3H662v6.1c14.9 2.8 17.6 12.7 17.6 32.1v95.5c0 45 21.4 66.9 65.6 66.9 28.1 0 51.9-9.4 73.4-29.3v8.7c.7 11.5 10.6 20.6 22.7 20.6h39.8v-6.1c-13.6-2.6-16.7-11.2-17-28.2V220.3c0-19.5 2.7-29.3 17.5-32.1v-6.1h-80.7zM1937.8 344.5V249c0-45-21.4-66.9-65.6-66.9-28.1 0-51.9 9.4-73.4 29.3v-8.7c-.7-11.5-10.6-20.6-22.7-20.6h-39.8v6.1c13.6 2.6 16.7 11.2 17 28.2v128.1c0 19.5-2.7 29.3-17.5 32.1v6.1h80.7v-6.1c-14.8-2.8-17.6-12.7-17.6-32.1v-112c17.6-19.2 36.9-28.6 56.5-28.6 27 0 36.9 15.1 36.9 47.7v109.8c.7 11.9 11 21.3 23.5 21.3h39.6v-6.1c-14.9-2.8-17.6-12.7-17.6-32.1M1089.1 182.1h-17.3v6.2h17.5c14.6 2.9 17.3 12.7 17.3 32.1v171.7c-.4 8.2-3.4 15.8-8.2 22 0 .1-.1.1-.1.2-.6.7-1.2 1.5-1.8 2.2l-.1.1c-2.6 2.8-5.5 5.3-8.8 7.4-.2.1-.3.2-.5.3s-.5.3-.7.4c-4.8 2.7-10.3 4.4-16.3 4.8-2.5.1-4.5.2-6.6 0v6c4.5.4 9.3.6 14.9.4 10.8-.3 19-1.7 26.6-4.3.5-.2 1.1-.3 1.6-.5 26.2-9.3 44.8-33.1 45.6-61.2V220.4c0-19.4 2.8-29.2 17.3-32.1h17.5v-6.2h-97.9M941.9 182.1h-17.3v6.2h17.5c14.6 2.9 17.3 12.7 17.3 32.1v171.7c-.4 8.2-3.4 15.8-8.2 22 0 .1-.1.1-.1.2-.6.7-1.2 1.5-1.8 2.2l-.1.1c-2.6 2.8-5.5 5.3-8.8 7.4-.2.1-.3.2-.5.3s-.5.3-.7.4c-4.8 2.7-10.3 4.4-16.3 4.8-2.5.1-4.5.2-6.6 0v6c4.5.4 9.3.6 14.9.4 10.8-.3 19-1.7 26.6-4.3.5-.2 1.1-.3 1.6-.5 26.2-9.3 44.8-33.1 45.6-61.2V220.4c0-19.4 2.8-29.2 17.3-32.1h17.5v-6.2h-97.9" class="st1"/><path d="M2080.2 362.8c29.3 0 43.9-10 43.9-30.1 0-6.2-1.3-11.4-3.9-15.8-2.6-4.3-6.1-8.1-10.6-11.3-4.4-3.2-9.5-5.9-15.2-8.2s-11.7-4.6-18.1-6.9c-7.3-2.5-14.3-5.3-20.8-8.5-6.6-3.2-12.2-6.9-17.1-11.3-4.8-4.3-8.6-9.5-11.4-15.5s-4.2-13.2-4.2-21.7c0-17.5 6-31.2 17.9-41.1 11.9-9.8 28.4-14.8 49.4-14.8 12.1 0 23.2 1.3 33.1 3.9s17.2 5.4 21.8 8.5l-8.9 22.8c-4-2.5-10.1-5-18.1-7.4q-12-3.6-27.9-3.6c-5.4 0-10.4.6-15 1.7-4.6 1.2-8.7 2.9-12.1 5.2-3.5 2.3-6.2 5.3-8.2 8.8q-3 5.4-3 12.6c0 5.4 1.1 9.9 3.2 13.6s5.1 6.9 9 9.7 8.3 5.3 13.4 7.7c5.1 2.3 10.7 4.6 16.9 6.9 8.7 3.5 16.6 6.9 23.9 10.4 7.2 3.5 13.5 7.6 18.8 12.4s9.4 10.5 12.3 17.2c2.9 6.6 4.3 14.7 4.3 24.1q0 26.25-19.2 40.5c-12.8 9.5-30.9 14.2-54.2 14.2-7.9 0-15.2-.5-21.8-1.6s-12.6-2.3-17.8-3.7-9.7-3-13.4-4.6c-3.8-1.6-6.7-3-8.8-4.2l8.4-23.1c4.4 2.5 11.2 5.3 20.2 8.4 9 3.2 20.1 4.8 33.2 4.8M2265.8 354.9c-1.9-4.6-4.5-10.5-7.7-17.6s-6.6-14.8-10.3-23.1-7.6-16.8-11.7-25.6c-4.2-8.8-8.1-17-11.7-24.9-3.7-7.8-7.1-14.8-10.3-21s-5.7-10.9-7.7-14.2c-2.1 22.7-3.8 47.4-5.2 73.9-1.3 26.5-2.5 53.2-3.4 80.2h-27.5c.8-17.3 1.6-34.8 2.6-52.5 1-17.6 2.1-35 3.3-52 1.2-17.1 2.6-33.7 4-49.9s3-31.5 4.7-46h24.6c5.2 8.5 10.8 18.5 16.8 30.1s12 23.7 17.9 36.3c6 12.6 11.8 25.2 17.4 37.9q8.4 18.9 15.3 34.5 6.9-15.6 15.3-34.5c5.6-12.6 11.4-25.2 17.3-37.9 6-12.6 11.9-24.7 17.9-36.3s11.6-21.6 16.8-30.1h24.6c6.6 64.6 11.5 131.3 14.8 200.3h-27.5c-1-27-2.2-53.7-3.5-80.2-1.4-26.5-3.1-51.1-5.2-73.8-1.9 3.3-4.5 8-7.7 14.2q-4.8 9.3-10.2 21-5.55 11.7-11.7 24.9c-4.1 8.8-8 17.3-11.7 25.6q-5.55 12.45-10.2 23.1c-3.2 7.1-5.7 13-7.7 17.6zM2549.9 382.5c-3.3-8.7-6.4-17.2-9.3-25.6s-5.9-16.9-9-25.6h-90.8l-18.2 51.2h-29.2q11.55-31.8 21.6-58.8t19.8-51.3c6.4-16.2 12.8-31.7 19.2-46.4s13-29.3 19.9-43.8h25.7c6.9 14.4 13.6 29 20 43.8 6.4 14.7 12.8 30.2 19.2 46.4q9.75 24.3 19.8 51.3c6.8 18 14 37.6 21.7 58.8zm-26.3-74.3c-6.2-16.8-12.3-33-18.4-48.7s-12.4-30.8-19-45.2a787 787 0 0 0-19.2 45.2c-6.1 15.7-12.1 31.9-18 48.7zM2716.7 358.1v24.3l-120.5.1-.1-200.3h28l.1 176zM2855.1 358v24.3l-120.5.1-.1-200.3h28l.1 176zM2928.3 382.3l-.1-200.3 120.8-.1v24h-92.8v60.4h82.4V290h-82.4v92.2zM3071.8 181.9h28l.1 200.3h-28zM3275.4 382.1c-4.2-7.1-9.1-15.1-14.6-24s-11.4-18.1-17.8-27.6-13-19.2-19.8-29q-10.2-14.7-20.4-28.5c-6.8-9.1-13.3-17.8-19.7-25.9s-12.2-15.2-17.6-21.4l.1 156.4h-27.5l-.1-200.3h22.3c9.1 9.6 18.7 20.9 29.1 33.7 10.3 12.8 20.5 26 30.7 39.6 10.1 13.6 19.7 26.9 28.6 40 9 13.1 16.5 24.8 22.7 35l-.1-148.3h27.5l.1 200.3zM3470.8 382c-3.3-8.7-6.4-17.2-9.3-25.6s-5.9-16.9-9-25.6h-90.8l-18.2 51.2h-29.2q11.55-31.8 21.6-58.8t19.8-51.3c6.4-16.2 12.8-31.7 19.2-46.4s13-29.3 19.9-43.8h25.7c6.9 14.4 13.6 29 20 43.8 6.4 14.7 12.8 30.2 19.2 46.4q9.75 24.3 19.8 51.3c6.8 18 14 37.6 21.7 58.8zm-26.3-74.3c-6.2-16.8-12.3-33-18.4-48.7s-12.4-30.8-19-45.2a787 787 0 0 0-19.2 45.2c-6.1 15.7-12.1 31.9-18 48.7zM3654.3 381.9c-4.2-7.1-9.1-15.1-14.6-24s-11.4-18.1-17.8-27.6-13-19.2-19.8-29q-10.2-14.7-20.4-28.5c-6.8-9.1-13.3-17.8-19.7-25.9s-12.2-15.2-17.6-21.4l.1 156.4H3517l-.1-200.3h22.3c9.1 9.6 18.7 20.9 29.1 33.7 10.3 12.8 20.5 26 30.7 39.6 10.1 13.6 19.7 26.9 28.6 40 9 13.1 16.5 24.8 22.7 35l-.1-148.3h27.5l.1 200.3zM3802 386.2q-21.15 0-38.4-6.9c-11.6-4.6-21.5-11.4-29.8-20.2-8.3-8.9-14.7-19.8-19.2-32.8s-6.8-27.9-6.8-44.7 2.5-31.7 7.6-44.7 12-23.9 20.7-32.8 18.8-15.6 30.3-20.2c11.6-4.6 23.9-6.9 37-7 8.3 0 15.8.6 22.4 1.7 6.6 1.2 12.4 2.5 17.3 4s8.9 3.1 12 4.6 5.2 2.7 6.4 3.5l-8.1 23.1c-1.7-1.2-4.2-2.4-7.5-3.8-3.3-1.3-7-2.7-11.1-4s-8.7-2.5-13.6-3.3c-4.9-.9-9.9-1.3-14.9-1.3-10.6 0-20.1 1.8-28.6 5.5s-15.7 9-21.7 15.9-10.5 15.4-13.7 25.3-4.8 21.1-4.8 33.4c0 12 1.4 22.8 4.2 32.7 2.8 9.8 7 18.3 12.6 25.3s12.6 12.5 21 16.3c8.4 3.9 18.2 5.8 29.3 5.8 12.9 0 23.6-1.4 32.1-4.1s14.8-5.1 19.1-7.2l7.2 23.1c-1.3 1-3.8 2.2-7.2 3.6-3.5 1.4-7.8 2.8-13 4.2-5.2 1.3-11.3 2.5-18.2 3.5-7 1-14.5 1.5-22.6 1.5M3883.5 381.8l-.1-200.3 122.3-.1v24h-94.2v59.5h83.8v23.4h-83.8v69.4l101.5-.1v24zM4146.3 383.4q-6 0-13.2-.3c-4.7-.2-9.4-.5-14.2-.9-4.7-.4-9.4-.9-14-1.4-4.6-.6-8.9-1.3-12.7-2.3l-.1-194.2c3.9-1 8.1-1.7 12.7-2.3s9.3-1.1 14-1.5 9.4-.7 14-.9 9-.3 13-.3c11.6 0 22.4.9 32.5 2.6s18.9 4.7 26.3 8.8 13.3 9.6 17.5 16.3 6.4 15 6.4 24.9q0 16.5-7.8 27c-5.2 7-12.1 12.3-20.8 15.8 11.8 3.5 21.1 8.9 28 16.5 6.9 7.5 10.4 18.1 10.4 31.8 0 20-7.4 35.1-22.1 45.2-14.6 10.1-37.9 15.2-69.9 15.2m-26.4-117.6h29.5c6.9 0 13.5-.5 19.7-1.5s11.5-2.7 16-5.2 8.1-5.8 10.7-9.8 3.9-9.2 3.9-15.3c0-5.8-1.4-10.6-4.1-14.6-2.7-3.9-6.4-7.1-11.1-9.5s-10.3-4.2-16.6-5.3c-6.4-1.2-13.1-1.7-20.2-1.7q-10.65 0-16.8.3c-4 .2-7.7.5-11 .9zm0 22.5v70.5q3.15.3 7.5.6c2.5.2 5.4.3 8.8.4s7.3.1 11.7.1c8.3 0 16.1-.5 23.6-1.6 7.4-1.1 13.9-2.9 19.5-5.6s10.1-6.5 13.4-11.3c3.4-4.8 5.1-10.9 5-18.2 0-6.5-1.3-12.1-3.8-16.6q-3.75-6.75-10.8-10.8c-4.7-2.7-10.4-4.6-16.9-5.8-6.6-1.2-13.9-1.7-22-1.7zM4400.4 381.5c-3.3-8.7-6.4-17.2-9.3-25.6s-5.9-16.9-9-25.6h-90.8l-18.2 51.2h-29.2q11.55-31.8 21.6-58.8t19.8-51.3c6.4-16.2 12.8-31.7 19.2-46.4s13-29.3 19.9-43.8h25.7c6.9 14.4 13.6 29 20 43.8 6.4 14.7 12.8 30.2 19.2 46.4q9.75 24.3 19.8 51.3c6.8 18 14 37.6 21.7 58.8zm-26.4-74.2c-6.2-16.8-12.3-33-18.4-48.7s-12.4-30.8-19-45.2a787 787 0 0 0-19.2 45.2c-6.1 15.7-12.1 31.9-18 48.7zM4583.9 381.4c-4.2-7.1-9.1-15.1-14.6-24s-11.4-18.1-17.8-27.6-13-19.2-19.8-29q-10.2-14.7-20.4-28.5c-6.8-9.1-13.3-17.8-19.7-25.9s-12.2-15.2-17.6-21.4l.1 156.4h-27.5l-.1-200.3h22.3c9.1 9.6 18.7 20.9 29.1 33.7 10.3 12.8 20.5 26 30.7 39.6 10.1 13.6 19.7 26.9 28.6 40 9 13.1 16.5 24.8 22.7 35l-.1-148.3h27.5l.1 200.3zM4793.6 181c-6 6.6-12.7 13.8-20.2 21.8s-15.4 16.2-23.5 24.6c-8.2 8.4-16.3 16.6-24.4 24.7s-15.7 15.6-22.8 22.6c8.3 5.8 17.1 12.9 26.3 21.4 9.3 8.5 18.3 17.5 27.2 27.2 8.9 9.6 17.2 19.5 25 29.5s14.3 19.6 19.5 28.6h-33c-5.8-9.1-12.4-18.2-20-27.3-7.5-9.1-15.5-17.9-23.9-26.3s-16.9-16.1-25.4-23.3c-8.6-7.1-16.9-13.2-25-18.2v95.1h-28l-.1-200.3h28v88.4c6.7-6.4 14.2-13.5 22.2-21.5 8.1-8 16.1-16 24-24.1s15.4-15.9 22.4-23.3 13-13.9 17.8-19.5z" class="st0"/><path d="M3360.2 604.9c-2.6 0-5.4-.1-8.4-.2q-4.5-.15-9-.6c-3-.2-6-.6-8.9-.9-2.9-.4-5.6-.8-8.1-1.5V478.1q3.75-.9 8.1-1.5c2.9-.4 5.9-.7 8.9-.9s6-.4 8.9-.5c3-.1 5.7-.2 8.3-.2 7.4 0 14.3.6 20.7 1.7s12 3 16.8 5.6c4.7 2.6 8.4 6.1 11.1 10.4s4 9.6 4 15.8c0 7-1.7 12.7-5 17.2s-7.7 7.8-13.3 10c7.5 2.2 13.4 5.7 17.9 10.5 4.4 4.8 6.6 11.5 6.6 20.2 0 12.8-4.7 22.3-14.1 28.8-9.3 6.5-24.2 9.7-44.5 9.7m-16.8-74.9h18.8c4.4 0 8.6-.3 12.5-.9q5.85-.9 10.2-3.3c2.9-1.6 5.2-3.7 6.8-6.3 1.7-2.6 2.5-5.8 2.5-9.7 0-3.7-.9-6.8-2.6-9.3s-4.1-4.5-7.1-6.1c-3-1.5-6.5-2.7-10.6-3.4-4-.7-8.3-1.1-12.9-1.1s-8.1.1-10.7.2-4.9.3-7 .6V530zm0 14.4v44.9c1.4.1 3 .3 4.8.4 1.6.1 3.5.2 5.6.3s4.6.1 7.5.1c5.3 0 10.3-.4 15-1 4.7-.7 8.9-1.9 12.4-3.6 3.6-1.7 6.4-4.1 8.6-7.2 2.1-3.1 3.2-6.9 3.2-11.6 0-4.2-.8-7.7-2.4-10.6q-2.4-4.35-6.9-6.9c-3-1.7-6.6-2.9-10.8-3.7-4.2-.7-8.8-1.1-14-1.1zM3519.2 601c-3.9 1-9.1 2-15.6 3.1-6.4 1.1-13.9 1.7-22.3 1.7-7.4 0-13.6-1.1-18.6-3.2s-9.1-5.2-12.1-9.1c-3.1-3.9-5.3-8.6-6.6-13.9s-2-11.3-2-17.8v-53.7h17.1v50c0 11.7 1.8 20 5.5 25q5.55 7.5 18.6 7.5c1.8 0 3.8-.1 5.7-.2 2-.1 3.8-.3 5.5-.5s3.3-.4 4.7-.5c1.4-.2 2.4-.4 3-.7v-80.8h17.1zM3557.1 490.8q-4.65 0-7.8-3c-2.1-2-3.2-4.7-3.2-8.2 0-3.4 1.1-6.2 3.2-8.2q3.3-3 7.8-3 4.65 0 7.8 3c2.2 2 3.2 4.7 3.2 8.2s-1.1 6.2-3.2 8.2q-3.3 3-7.8 3m8.6 113h-17.1v-95.7h17.1zM3623.8 605.7c-10.5-.3-18-2.5-22.4-6.8q-6.6-6.45-6.6-20.1V464l17.1-2.9v115c0 2.8.2 5.1.7 7 .5 1.8 1.3 3.3 2.4 4.4s2.6 1.9 4.4 2.5c1.8.5 4.1 1 6.8 1.4zM3707.2 464l17.1-2.9v140c-3.9 1.1-9 2.2-15.1 3.3s-13.2 1.7-21.2 1.7c-7.4 0-14-1.2-19.9-3.5s-10.9-5.6-15.1-9.9-7.4-9.5-9.7-15.7-3.4-13.2-3.4-20.9c0-7.4.9-14.1 2.8-20.2s4.7-11.4 8.4-15.8 8.2-7.9 13.5-10.3c5.3-2.5 11.4-3.7 18.3-3.7 5.5 0 10.4.7 14.6 2.2s7.4 2.9 9.5 4.2V464zm0 64.4c-2.1-1.7-5.1-3.4-9-5q-5.85-2.4-12.9-2.4-7.35 0-12.6 2.7c-3.5 1.8-6.3 4.2-8.6 7.4q-3.3 4.65-4.8 11.1t-1.5 13.8c0 11.2 2.8 19.8 8.3 25.8 5.5 6.1 12.9 9.1 22.1 9.1q7.05 0 11.7-.6c3.1-.4 5.5-.9 7.3-1.4zM3827.2 505.7q10.2 0 17.4 2.7 7.05 2.7 11.4 7.5c2.9 3.2 4.9 7.1 6.1 11.6s1.8 9.4 1.8 14.8v59.8c-1.5.3-3.5.6-6.2 1-2.6.4-5.6.8-8.9 1.2s-6.9.7-10.8 1-7.7.5-11.5.5c-5.4 0-10.4-.6-14.9-1.7s-8.4-2.9-11.8-5.2c-3.3-2.4-5.9-5.6-7.7-9.5s-2.8-8.6-2.8-14.2c0-5.3 1.1-9.8 3.2-13.6 2.2-3.8 5.1-6.9 8.8-9.2s8-4 12.9-5.2c4.9-1.1 10.1-1.7 15.4-1.7q2.55 0 5.4.3c1.8.2 3.6.4 5.3.7s3.1.6 4.3.8 2.1.4 2.6.5V543q0-4.2-.9-8.4c-.6-2.8-1.7-5.2-3.3-7.4-1.6-2.1-3.8-3.9-6.5-5.1-2.7-1.3-6.3-1.9-10.8-1.9-5.6 0-10.6.4-14.8 1.2s-7.4 1.6-9.5 2.5l-2-14.2c2.2-1 5.9-1.9 11.1-2.9s10.7-1.1 16.7-1.1m1.5 85.8q6 0 10.8-.3c3.1-.2 5.7-.5 7.8-1v-28.5c-1.2-.6-3.2-1.1-6-1.6-2.7-.4-6.1-.6-10-.6-2.6 0-5.3.2-8.2.5-2.9.4-5.5 1.1-7.9 2.3q-3.6 1.8-6 4.8c-1.6 2-2.4 4.7-2.4 8 0 6.1 2 10.4 5.9 12.8s9.2 3.6 16 3.6M3970.3 604.9c-2.6 0-5.4-.1-8.4-.2q-4.5-.15-9-.6c-3-.2-6-.6-8.9-.9-2.9-.4-5.6-.8-8.1-1.5V478.1q3.75-.9 8.1-1.5c2.9-.4 5.9-.7 8.9-.9s6-.4 8.9-.5c3-.1 5.7-.2 8.3-.2 7.4 0 14.3.6 20.7 1.7s12 3 16.8 5.6c4.7 2.6 8.4 6.1 11.1 10.4s4 9.6 4 15.8c0 7-1.7 12.7-5 17.2s-7.7 7.8-13.3 10c7.5 2.2 13.4 5.7 17.9 10.5 4.4 4.8 6.6 11.5 6.6 20.2 0 12.8-4.7 22.3-14.1 28.8-9.3 6.5-24.1 9.7-44.5 9.7m-16.7-74.9h18.8c4.4 0 8.6-.3 12.5-.9q5.85-.9 10.2-3.3c2.9-1.6 5.2-3.7 6.8-6.3 1.7-2.6 2.5-5.8 2.5-9.7 0-3.7-.9-6.8-2.6-9.3s-4.1-4.5-7.1-6.1c-3-1.5-6.5-2.7-10.6-3.4-4-.7-8.3-1.1-12.9-1.1s-8.1.1-10.7.2-4.9.3-7 .6V530zm0 14.4v44.9c1.4.1 3 .3 4.8.4 1.6.1 3.5.2 5.6.3s4.6.1 7.5.1c5.3 0 10.3-.4 15-1 4.7-.7 8.9-1.9 12.4-3.6 3.6-1.7 6.4-4.1 8.6-7.2 2.1-3.1 3.2-6.9 3.2-11.6 0-4.2-.8-7.7-2.4-10.6q-2.4-4.35-6.9-6.9c-3-1.7-6.6-2.9-10.8-3.7s-8.8-1.1-14-1.1zM4047.8 556.2c0-8.5 1.2-15.9 3.7-22.2s5.7-11.6 9.7-15.7c4-4.2 8.7-7.3 14-9.4s10.7-3.1 16.2-3.1c12.9 0 22.7 4 29.6 12.1 6.8 8 10.3 20.3 10.3 36.7v2.9c0 1.2-.1 2.2-.2 3.2h-65.5c.7 9.9 3.6 17.5 8.6 22.6 5 5.2 12.9 7.7 23.6 7.7 6 0 11.1-.5 15.2-1.6 4.1-1 7.2-2.1 9.3-3l2.4 14.4c-2.1 1.1-5.7 2.3-11 3.5q-7.8 1.8-17.7 1.8c-8.3 0-15.5-1.3-21.6-3.8s-11.1-6-15-10.4-6.8-9.7-8.8-15.7c-1.9-6.2-2.8-12.8-2.8-20m65.7-9.4c.1-7.7-1.8-14.1-5.8-19q-6-7.5-16.5-7.5c-3.9 0-7.4.8-10.4 2.3s-5.5 3.5-7.6 6-3.7 5.3-4.9 8.5-1.9 6.5-2.3 9.8zM4172 508.1h36.2v14.4H4172v44.1c0 4.8.4 8.7 1.1 11.9.7 3.1 1.8 5.6 3.3 7.4s3.3 3 5.5 3.8c2.2.7 4.8 1.1 7.7 1.1 5.2 0 9.3-.6 12.4-1.8s5.3-2 6.5-2.5l3.3 14.2c-1.7.9-4.7 1.9-9 3.2s-9.2 1.9-14.7 1.9c-6.5 0-11.9-.8-16.1-2.5s-7.6-4.1-10.2-7.5c-2.6-3.3-4.4-7.4-5.4-12.2-1.1-4.8-1.6-10.5-1.6-16.8v-85.4l17.1-2.9v29.6zM4246 508.1h36.2v14.4H4246v44.1c0 4.8.4 8.7 1.1 11.9.7 3.1 1.8 5.6 3.3 7.4s3.3 3 5.5 3.8c2.2.7 4.8 1.1 7.7 1.1 5.2 0 9.3-.6 12.4-1.8s5.3-2 6.5-2.5l3.3 14.2c-1.7.9-4.7 1.9-9 3.2s-9.2 1.9-14.7 1.9c-6.5 0-11.9-.8-16.1-2.5s-7.6-4.1-10.2-7.5-4.4-7.4-5.4-12.2c-1.1-4.8-1.6-10.5-1.6-16.8v-85.4l17.1-2.9v29.6zM4296.8 556.2c0-8.5 1.2-15.9 3.7-22.2s5.7-11.6 9.7-15.7c4-4.2 8.7-7.3 14-9.4s10.7-3.1 16.2-3.1c12.9 0 22.7 4 29.6 12.1 6.8 8 10.3 20.3 10.3 36.7v2.9c0 1.2-.1 2.2-.2 3.2h-65.5c.7 9.9 3.6 17.5 8.6 22.6 5 5.2 12.9 7.7 23.6 7.7 6 0 11.1-.5 15.2-1.6 4.1-1 7.2-2.1 9.3-3l2.4 14.4c-2.1 1.1-5.7 2.3-11 3.5q-7.8 1.8-17.7 1.8c-8.3 0-15.5-1.3-21.6-3.8s-11.1-6-15-10.4-6.8-9.7-8.8-15.7c-1.9-6.2-2.8-12.8-2.8-20m65.6-9.4c.1-7.7-1.8-14.1-5.8-19q-6-7.5-16.5-7.5c-3.9 0-7.4.8-10.4 2.3s-5.5 3.5-7.6 6-3.7 5.3-4.9 8.5-1.9 6.5-2.3 9.8zM4440.3 506.1q2.25 0 5.1.3c1.9.2 3.8.4 5.6.7q2.7.45 5.1.9c1.5.3 2.7.6 3.4.8l-2.9 14.9c-1.4-.5-3.6-1.1-6.7-1.8-3.2-.7-7.2-1-12.1-1-3.2 0-6.3.4-9.5 1-3.1.7-5.2 1.1-6.2 1.4v80.4H4405v-91.6c4-1.5 9.1-2.9 15.1-4.1 5.9-1.3 12.7-1.9 20.2-1.9M4596.3 588.4v15.4h-76.7V476.3h17.8v112.1zM4622.4 490.8q-4.65 0-7.8-3c-2.1-2-3.2-4.7-3.2-8.2s1.1-6.2 3.2-8.2q3.3-3 7.8-3 4.65 0 7.8 3c2.2 2 3.2 4.7 3.2 8.2 0 3.4-1.1 6.2-3.2 8.2q-3.15 3-7.8 3m8.6 113h-17.1v-95.7h17.1zM4697.9 461c5 0 9.3.4 13 1.1 3.6.7 6.1 1.4 7.6 2l-3.2 14.7c-1.5-.7-3.5-1.4-6.2-2.1s-6-1-9.9-1c-8 0-13.5 2.2-16.7 6.5-3.2 4.4-4.8 10.2-4.8 17.6v8.3h36.8v14.4h-36.8v81.3h-17.1V499.5c0-12.3 3-21.7 9-28.4 5.9-6.7 15.4-10.1 28.3-10.1M4726.2 556.2c0-8.5 1.2-15.9 3.7-22.2s5.7-11.6 9.7-15.7c4-4.2 8.7-7.3 14-9.4s10.7-3.1 16.2-3.1c12.9 0 22.7 4 29.6 12.1 6.8 8 10.3 20.3 10.3 36.7v2.9c0 1.2-.1 2.2-.2 3.2H4744c.7 9.9 3.6 17.5 8.6 22.6 5 5.2 12.9 7.7 23.6 7.7 6 0 11.1-.5 15.2-1.6 4.1-1 7.2-2.1 9.3-3l2.4 14.4c-2.1 1.1-5.7 2.3-11 3.5q-7.8 1.8-17.7 1.8c-8.3 0-15.5-1.3-21.6-3.8s-11.1-6-15-10.4c-4-4.4-6.8-9.7-8.8-15.7-1.9-6.2-2.8-12.8-2.8-20m65.7-9.4c.1-7.7-1.8-14.1-5.8-19q-6-7.5-16.5-7.5c-3.9 0-7.4.8-10.4 2.3s-5.5 3.5-7.6 6-3.7 5.3-4.9 8.5-1.9 6.5-2.3 9.8h47.5z" class="st4"/></svg>