<svg xmlns="http://www.w3.org/2000/svg" xml:space="preserve" width="542.6" height="606.051" viewBox="0 0 542.6 606.051"><path d="M507.8 99.7C509.7 16.6 542.6.4 542.6.4s-71.4-2.4-87.1 5c-72.8 26.6-84.3 108.4-84.4 161.1v.3-.3c.1-7.8-.6-155.3-159.3-165.6C207 .6 0 .4 0 .4s33.2 16.2 34.9 99.3v250.9c5.2-56 30.3-122.6 90.8-199.1 51.7 65.4 77.6 123.6 87.2 174.1 36.8-30.6 87.6-56.6 157.7-72 0 0 8 95.8-31.5 184 44.6-11.5 97.6-13.7 160-.1 4.7-16.6 7.8-34 8.8-52z" style="fill:#229e82" transform="translate(0 -.028)"/><path d="M119.2 552.5c-2-50.3 4.7-152.6 93.7-226.9-9.7-50.5-35.5-108.7-87.2-174.1C65.2 228 40.1 294.6 34.9 350.6c0 0-15.2 120 84.3 201.9" style="fill:#f78f35" transform="translate(0 -.028)"/><path d="M370.6 253.6c-70.1 15.5-120.9 41.4-157.7 72-89.1 74.3-95.8 176.6-93.7 226.9 2.5 2.5 37.3 25.2 37.3 25.2 27.4-44.5 84.6-114.8 182.6-140.1 39.6-88.2 31.5-184 31.5-184" style="fill:#fcb53e" transform="translate(0 -.028)"/><path d="M339.1 437.6c-98 25.3-155.3 95.6-182.6 140.1.1 0 .3.1.4.2 57.9 32.2 118.5 28 118.5 28 106.2-.1 195.7-71.2 223.7-168.4-62.4-13.7-115.4-11.4-160 .1" style="fill:#ffca43" transform="translate(0 -.028)"/></svg>