<svg xmlns="http://www.w3.org/2000/svg" width="197.319" height="33.75" data-name="Group 11309" viewBox="0 0 197.319 33.75"><g data-name="Group 22"><path fill="#00b2f1" d="M105.761 9.813a7.08 7.08 0 0 0-6.673-4.734h-.068a7.05 7.05 0 0 0-5.1 2.177 7.04 7.04 0 0 0-5.095-2.177h-.064a7.03 7.03 0 0 0-4.608 1.715v-.541a1.04 1.04 0 0 0-1.037-.967h-4.729a1.047 1.047 0 0 0-1.046 1.045v25.684a1.046 1.046 0 0 0 1.046 1.05h4.729a1.04 1.04 0 0 0 1.031-.9V13.728c0-.062 0-.124.009-.186a1.72 1.72 0 0 1 1.629-1.582h.874a1.8 1.8 0 0 1 1 .385 1.74 1.74 0 0 1 .642 1.383l.015 18.346a1.05 1.05 0 0 0 1.05 1.046h4.729a1.04 1.04 0 0 0 1.037-1V13.7a1.74 1.74 0 0 1 .772-1.48 1.9 1.9 0 0 1 .872-.291h.872a1.733 1.733 0 0 1 1.638 1.772l.019 18.32a1.046 1.046 0 0 0 1.045 1.05h4.728a1.05 1.05 0 0 0 1.048-1.05v-19.7a6.7 6.7 0 0 0-.359-2.5" data-name="Path 1"/><path fill="#00b2f1" d="M73.741 5.354h-2.7v-4.4a.932.932 0 0 0-1.137-.936c-3 .823-2.4 4.977-7.87 5.332h-.536a1 1 0 0 0-.229.026 1.045 1.045 0 0 0-.813 1.02v4.725a1.046 1.046 0 0 0 1.045 1.05h2.855v20.051a1.033 1.033 0 0 0 1.035 1.035h4.674a1.03 1.03 0 0 0 1.031-1.035V12.171h2.649a1.046 1.046 0 0 0 1.044-1.05V6.396a1.043 1.043 0 0 0-1.044-1.046" data-name="Path 2"/><path fill="#0c2756" d="M56.724 5.355h-4.727a1.046 1.046 0 0 0-1.048 1.046v9.776a1.11 1.11 0 0 1-1.1 1.093h-1.987a1.11 1.11 0 0 1-1.11-1.112l-.017-9.759a1.044 1.044 0 0 0-1.045-1.046h-4.732a1.044 1.044 0 0 0-1.044 1.046v10.718a6.71 6.71 0 0 0 6.975 6.973s3.058 0 3.152.017a1.1 1.1 0 0 1 .015 2.189c-.024 0-.047.009-.077.013l-6.917.026a1.047 1.047 0 0 0-1.048 1.046v4.729a1.05 1.05 0 0 0 1.048 1.046h7.73a6.71 6.71 0 0 0 6.977-6.975V6.401a1.044 1.044 0 0 0-1.046-1.046" data-name="Path 3"/><path fill="#0c2756" d="M11.362 5.357H1.024A1.024 1.024 0 0 0-.002 6.381v25.697a1.02 1.02 0 0 0 .956 1.05h4.819a1.046 1.046 0 0 0 1.051-1.05l.017-7.188h4.524a6.14 6.14 0 0 0 6.429-6.429V11.79a6.146 6.146 0 0 0-6.429-6.434m-.415 8.662v2.921a1.11 1.11 0 0 1-1.108 1.108h-3v-5.85h3a1.107 1.107 0 0 1 1.108 1.108Z" data-name="Path 4"/><path fill="#0c2756" d="M29.82 5.381h-6.56a1.02 1.02 0 0 0-1.052.981v4.435a1.08 1.08 0 0 0 1.116 1.039h6.248a1.085 1.085 0 0 1 .941 1v.609a1.06 1.06 0 0 1-.919.973h-3.09c-4.116 0-7.05 2.733-7.05 6.571v5.5a6.2 6.2 0 0 0 6.609 6.532h8.576a2.7 2.7 0 0 0 2.788-2.6V12.48c0-4.353-2.247-7.1-7.607-7.1m.755 19.742v.738a1 1 0 0 1-.021.173 1 1 0 0 1-.041.154 1.11 1.11 0 0 1-1.056.712H27.49a1.08 1.08 0 0 1-1.114-1.039v-4.049a1.08 1.08 0 0 1 1.114-1.035h1.967a1.083 1.083 0 0 1 1.118 1.041Z" data-name="Path 5"/><path fill="#00b2f1" d="M114.124 12.256h1.007a5.44 5.44 0 0 0 3.419-.951 3.34 3.34 0 0 0 1.242-2.777c0-2.305-1.475-3.472-4.383-3.472h-3.119v11.508h1.834v-4.31m0-5.536h1.14a3.5 3.5 0 0 1 2.05.473 1.62 1.62 0 0 1 .6 1.394 1.74 1.74 0 0 1-.641 1.527 4.03 4.03 0 0 1-2.284.49h-.864Z" data-name="Path 6"/><path fill="#00b2f1" d="M125.858 16.139a4.5 4.5 0 0 0 1.512-1.238l.293 1.407h1.441V8.94a3.64 3.64 0 0 0-.958-2.8 4.2 4.2 0 0 0-2.9-.879 7.7 7.7 0 0 0-1.9.246 8 8 0 0 0-1.751.678l-.111.062.6 1.482.135-.066a6.85 6.85 0 0 1 2.933-.8 2.1 2.1 0 0 1 1.614.547 2.58 2.58 0 0 1 .5 1.751v.52l-1.663.051c-3.5.107-5.268 1.285-5.268 3.506a3.1 3.1 0 0 0 .939 2.414 3.68 3.68 0 0 0 2.564.847 5 5 0 0 0 2.023-.363m1.366-5.035v.812a2.9 2.9 0 0 1-.815 2.2 3.14 3.14 0 0 1-2.256.783 2.1 2.1 0 0 1-1.381-.419 1.52 1.52 0 0 1-.481-1.223 1.64 1.64 0 0 1 .78-1.516 5.74 5.74 0 0 1 2.7-.575Z" data-name="Path 7"/><path fill="#00b2f1" d="m136.104 17.687 4.552-12.061.071-.19h-2.023l-.034.09c-1.475 4.08-2.36 6.554-2.624 7.345q-.279.83-.425 1.315c-.162-.62-.451-1.5-.866-2.623l-2.352-6.128h-2.025l4.33 10.791-.569 1.456a2.31 2.31 0 0 1-2.226 1.768 5.6 5.6 0 0 1-1.161-.113l-.171-.038v1.571l.109.026a6.7 6.7 0 0 0 1.482.165 3.52 3.52 0 0 0 2.307-.778 6.2 6.2 0 0 0 1.623-2.6" data-name="Path 8"/><path fill="#00b2f1" d="M153.77 5.241a4.4 4.4 0 0 0-2.115.5 3.55 3.55 0 0 0-1.336 1.212 3.33 3.33 0 0 0-3.3-1.713 4.04 4.04 0 0 0-1.914.451 3.34 3.34 0 0 0-1.2 1.052l-.237-1.309h-1.559v10.875h1.879v-5.7a4.8 4.8 0 0 1 .671-2.872 2.5 2.5 0 0 1 2.1-.851 1.99 1.99 0 0 1 1.584.584 2.74 2.74 0 0 1 .507 1.807v7.034h1.886v-6.058a3.98 3.98 0 0 1 .682-2.557 2.6 2.6 0 0 1 2.106-.812 1.97 1.97 0 0 1 1.574.584 2.72 2.72 0 0 1 .511 1.807v7.034h1.884v-7.05a4.3 4.3 0 0 0-.934-3.053 3.75 3.75 0 0 0-2.792-.966" data-name="Path 9"/><path fill="#00b2f1" d="M164.163 5.241a4.34 4.34 0 0 0-3.5 1.559 6.3 6.3 0 0 0-1.294 4.161 5.69 5.69 0 0 0 1.4 4.067 5.02 5.02 0 0 0 3.8 1.473 9.3 9.3 0 0 0 1.864-.162 9 9 0 0 0 1.636-.535l.085-.038V14.03l-.2.085a8.4 8.4 0 0 1-3.325.7 3.14 3.14 0 0 1-2.414-.92 3.97 3.97 0 0 1-.9-2.6h7.293V10.14a5.2 5.2 0 0 0-1.2-3.549 4.15 4.15 0 0 0-3.256-1.356m-1.95 2.41a2.5 2.5 0 0 1 1.933-.785 2.23 2.23 0 0 1 1.824.755 3.32 3.32 0 0 1 .641 2.095h-5.237a3.63 3.63 0 0 1 .848-2.059Z" data-name="Path 10"/><path fill="#00b2f1" d="M176.214 5.241a4.64 4.64 0 0 0-2.042.443 3.54 3.54 0 0 0-1.308 1.069l-.235-1.319h-1.561v10.875h1.884v-5.7a4.43 4.43 0 0 1 .738-2.872 2.93 2.93 0 0 1 2.329-.851 2.27 2.27 0 0 1 1.743.594 2.64 2.64 0 0 1 .554 1.837v6.994h1.886v-7.05a4.07 4.07 0 0 0-1.013-3.055 4.17 4.17 0 0 0-2.978-.964" data-name="Path 11"/><path fill="#00b2f1" d="M187.58 14.835a5 5 0 0 1-.8.062 1.45 1.45 0 0 1-1.144-.466 2.03 2.03 0 0 1-.417-1.375V6.965h3.075V5.438h-3.075V2.983h-1.172l-.688 2.3-1.54.676v1.006h1.516v6.164c0 2.237 1.078 3.378 3.214 3.378a6 6 0 0 0 .936-.085 3.3 3.3 0 0 0 .806-.218l.081-.041v-1.5l-.18.053a5 5 0 0 1-.611.124" data-name="Path 12"/><path fill="#00b2f1" d="M196.621 11.431a7 7 0 0 0-2.6-1.416 16 16 0 0 1-1.834-.774 2 2 0 0 1-.659-.528 1.1 1.1 0 0 1-.188-.646.96.96 0 0 1 .517-.862 3.15 3.15 0 0 1 1.642-.338 7.6 7.6 0 0 1 2.839.646l.126.051.684-1.559-.132-.054a8.6 8.6 0 0 0-3.4-.708 5.08 5.08 0 0 0-2.968.774 2.53 2.53 0 0 0-1.11 2.162 2.6 2.6 0 0 0 .319 1.317 3.1 3.1 0 0 0 .975.979 11.4 11.4 0 0 0 2.128.975 8.2 8.2 0 0 1 2.051 1.018 1.17 1.17 0 0 1 .485.947 1.19 1.19 0 0 1-.607 1.1 3.7 3.7 0 0 1-1.858.381 6.7 6.7 0 0 1-1.657-.22 7.6 7.6 0 0 1-1.606-.6l-.207-.1v1.8l.073.038a6.9 6.9 0 0 0 3.353.688 5.35 5.35 0 0 0 3.179-.83 2.8 2.8 0 0 0 1.159-2.393 2.6 2.6 0 0 0-.7-1.849" data-name="Path 13"/><path fill="#00b2f1" d="M118.553 27.588a2.5 2.5 0 0 0 .9-.654 2.7 2.7 0 0 0 .609-1.787 2.59 2.59 0 0 0-1.1-2.294 6.04 6.04 0 0 0-3.308-.7h-3.366v11.5h4.094a4.5 4.5 0 0 0 2.951-.887 3.1 3.1 0 0 0 1.1-2.508 2.66 2.66 0 0 0-1.877-2.675m-.047 2.585a1.62 1.62 0 0 1-.562 1.385 3 3 0 0 1-1.82.455h-2v-3.534h1.9a3.43 3.43 0 0 1 1.924.43 1.42 1.42 0 0 1 .555 1.269Zm-4.387-3.331v-3.025h1.593a3.87 3.87 0 0 1 1.946.368 1.17 1.17 0 0 1 .524 1.09 1.36 1.36 0 0 1-.473 1.2 3.2 3.2 0 0 1-1.777.37Z" data-name="Path 14"/><path fill="#00b2f1" d="M126.592 22.394a7.95 7.95 0 0 0-3.691.936l-.109.056.6 1.5.137-.068a6.95 6.95 0 0 1 2.966-.806 2.11 2.11 0 0 1 1.627.55 2.6 2.6 0 0 1 .507 1.772v.526l-1.68.054c-3.534.109-5.324 1.3-5.324 3.539a3.14 3.14 0 0 0 .949 2.44 3.72 3.72 0 0 0 2.591.855 5.1 5.1 0 0 0 2.048-.366 4.5 4.5 0 0 0 1.524-1.251l.3 1.424h1.456v-7.447a3.7 3.7 0 0 0-.971-2.831 4.23 4.23 0 0 0-2.929-.885m2 5.9v.821a2.94 2.94 0 0 1-.821 2.222 3.17 3.17 0 0 1-2.283.793 2.07 2.07 0 0 1-1.4-.426 1.54 1.54 0 0 1-.485-1.229 1.66 1.66 0 0 1 .789-1.537 5.76 5.76 0 0 1 2.722-.582Z" data-name="Path 15"/><path fill="#00b2f1" d="M138.755 22.375a4.7 4.7 0 0 0-2.066.449 3.5 3.5 0 0 0-1.321 1.078l-.239-1.332h-1.576v10.987h1.9v-5.756a4.5 4.5 0 0 1 .746-2.906 2.95 2.95 0 0 1 2.358-.862 2.3 2.3 0 0 1 1.762.6 2.68 2.68 0 0 1 .558 1.86v7.065h1.9v-7.126a4.14 4.14 0 0 0-1.016-3.085 4.23 4.23 0 0 0-3.01-.971" data-name="Path 16"/><path fill="#00b2f1" d="M154.563 22.57h-2.309l-3.5 3.71q-.679.763-1.09 1.3.055-.85.056-1.3v-8.2h-1.889v15.484h1.884v-4.082l1.054-.911 3.735 4.993h2.314l-4.74-6.275 4.482-4.712" data-name="Path 17"/></g></svg>