<svg xmlns="http://www.w3.org/2000/svg" width="106.136" height="33.262" data-name="Group 11309" viewBox="0 0 106.136 33.262"><g data-name="Group 22"><path fill="#00b2f1" d="M105.764 9.818a7.08 7.08 0 0 0-6.673-4.734h-.068a7.05 7.05 0 0 0-5.1 2.177 7.04 7.04 0 0 0-5.095-2.177h-.064a7.03 7.03 0 0 0-4.608 1.715v-.541a1.04 1.04 0 0 0-1.037-.967h-4.73a1.047 1.047 0 0 0-1.045 1.045V32.02a1.046 1.046 0 0 0 1.046 1.05h4.729a1.04 1.04 0 0 0 1.03-.9V13.733c0-.062 0-.124.01-.186a1.72 1.72 0 0 1 1.629-1.582h.874a1.8 1.8 0 0 1 1 .385 1.74 1.74 0 0 1 .642 1.383l.015 18.346a1.05 1.05 0 0 0 1.05 1.046h4.729a1.04 1.04 0 0 0 1.037-1v-18.42a1.74 1.74 0 0 1 .772-1.48 1.9 1.9 0 0 1 .872-.291h.872a1.733 1.733 0 0 1 1.638 1.772l.019 18.32a1.046 1.046 0 0 0 1.045 1.05h4.728a1.05 1.05 0 0 0 1.048-1.05v-19.7a6.7 6.7 0 0 0-.36-2.5" data-name="Path 1"/><path fill="#00b2f1" d="M73.744 5.359h-2.7v-4.4a.932.932 0 0 0-1.137-.936c-3 .823-2.4 4.977-7.87 5.332H61.5a1 1 0 0 0-.23.026 1.045 1.045 0 0 0-.812 1.02v4.725a1.046 1.046 0 0 0 1.045 1.05h2.855v20.05a1.033 1.033 0 0 0 1.035 1.036h4.674a1.03 1.03 0 0 0 1.03-1.035V12.176h2.65a1.046 1.046 0 0 0 1.044-1.05V6.4a1.043 1.043 0 0 0-1.044-1.046" data-name="Path 2"/><path fill="#0c2756" d="M56.727 5.36H52a1.046 1.046 0 0 0-1.048 1.046v9.776a1.11 1.11 0 0 1-1.1 1.093h-1.987a1.11 1.11 0 0 1-1.11-1.112l-.017-9.76a1.044 1.044 0 0 0-1.045-1.045H40.96a1.044 1.044 0 0 0-1.044 1.046v10.718a6.71 6.71 0 0 0 6.975 6.973s3.058 0 3.152.017a1.1 1.1 0 0 1 .015 2.189c-.024 0-.047.009-.077.013l-6.917.026a1.047 1.047 0 0 0-1.048 1.046v4.729a1.05 1.05 0 0 0 1.048 1.046h7.73a6.71 6.71 0 0 0 6.977-6.975V6.406a1.044 1.044 0 0 0-1.046-1.046" data-name="Path 3"/><path fill="#0c2756" d="M11.365 5.362H1.027A1.024 1.024 0 0 0 0 6.386v25.697a1.02 1.02 0 0 0 .956 1.05h4.819a1.046 1.046 0 0 0 1.05-1.05l.018-7.188h4.524a6.14 6.14 0 0 0 6.429-6.43v-6.67a6.146 6.146 0 0 0-6.43-6.434m-.414 8.662v2.92a1.11 1.11 0 0 1-1.108 1.109h-3v-5.85h3a1.107 1.107 0 0 1 1.108 1.108z" data-name="Path 4"/><path fill="#0c2756" d="M29.823 5.386h-6.56a1.02 1.02 0 0 0-1.052.98v4.436a1.08 1.08 0 0 0 1.116 1.039h6.248a1.085 1.085 0 0 1 .94 1v.609a1.06 1.06 0 0 1-.918.973h-3.09c-4.116 0-7.05 2.733-7.05 6.57v5.5a6.2 6.2 0 0 0 6.609 6.533h8.576a2.7 2.7 0 0 0 2.788-2.6V12.485c0-4.353-2.247-7.1-7.607-7.1m.755 19.742v.738a1 1 0 0 1-.021.173 1 1 0 0 1-.041.154 1.11 1.11 0 0 1-1.056.712h-1.967a1.08 1.08 0 0 1-1.114-1.04v-4.048a1.08 1.08 0 0 1 1.114-1.035h1.967a1.083 1.083 0 0 1 1.118 1.04z" data-name="Path 5"/></g></svg>