<svg xmlns="http://www.w3.org/2000/svg" width="116" height="31" fill="none" viewBox="0 0 116 31"><path fill="#cc000a" fill-rule="evenodd" d="M40.866 2.801h-2.2v3.974h1.963c1.609 0 2.46-.7 2.46-2.016 0-1.709-1.395-1.958-2.223-1.958m-.107 6.276h-2.093v4.733h-2.365V.5h4.73c2.886 0 4.542 1.566 4.542 4.294 0 2.729-1.75 4.283-4.814 4.283m63.614-7.816-2.365.261v9.728a2.46 2.46 0 0 0 1.705 2.572c.355.112.73.14 1.097.085h.284a6 6 0 0 0 1.384-.142h.071v-1.898h-.095a6.3 6.3 0 0 1-1.182 0c-.875-.06-.994-.57-.994-1.068V6.54h2.224V4.417h-2.224zM24.275 3.406a9.65 9.65 0 0 0-6.067-1.803c-3.548 0-7.368 1.364-11.448 4.057l-.106.083-.414.261-.32.214a26 26 0 0 0-2.365 1.839C1.83 9.74-.135 12.529.007 14.913a3.25 3.25 0 0 0 1.183 2.444c.75.56 1.667.848 2.602.819a12.4 12.4 0 0 0 5.913-2.112l.296-.19.816-.546.271-.19a31.5 31.5 0 0 1 7.096-3.95 5.4 5.4 0 0 1 1.798-.356q.39.002.769.095a2.36 2.36 0 0 1 1.726 1.34 6.13 6.13 0 0 1-.366 4.948 21.5 21.5 0 0 1-5.7 7.117 22.8 22.8 0 0 1-3.738 2.681h-.106q-.83.495-1.727.854h-.083q-.242.105-.496.178c-2.602.712-1.017-1.601-1.017-1.601a20 20 0 0 1 1.904-1.78c.354-.32.721-.664 1.088-1.044l.082-.082a2.68 2.68 0 0 0 1.041-1.982 2.37 2.37 0 0 0-.82-1.422 2.36 2.36 0 0 0-1.545-.547h-.118a4.8 4.8 0 0 0-2.791 1.186 9.3 9.3 0 0 0-1.88 2.124C5.47 24 4.051 26.823 5.47 29.066a3.09 3.09 0 0 0 2.815 1.364 9.8 9.8 0 0 0 3.228-.7 23.8 23.8 0 0 0 4.6-2.373l.38-.237a34.4 34.4 0 0 0 4.434-3.322 20 20 0 0 0 6.374-9.134c.756-2.143.864-4.463.308-6.667a8.58 8.58 0 0 0-3.335-4.59m32.34 13.73h2.472l5.064-12.6.047-.13h-2.472l-2.294 5.789-2.436-5.742-.024-.047h-2.507l3.785 8.636zm17.73-12.508a4.1 4.1 0 0 1 1.657-.331c2.271 0 3.43 1.376 3.525 4.08v5.434h-2.365V8.757c0-2.076-.793-2.254-1.526-2.254-1.135 0-1.928 1.092-1.928 2.634v4.674h-2.306V8.745c0-1.969-.792-2.242-1.561-2.242-1.206 0-2.01 1.056-2.01 2.634v4.674h-2.366V4.403h2.365v.772a3.83 3.83 0 0 1 2.366-.878 3.14 3.14 0 0 1 2.767 1.305 4.1 4.1 0 0 1 1.383-.974m22.457-.331a4.26 4.26 0 0 0-2.649.901v-.794h-2.365v9.407h2.365V9.066c0-1.614.852-2.61 2.212-2.61.804 0 1.62.26 1.62 2.206v5.113h2.365V8.378c-.059-2.61-1.324-4.081-3.548-4.081m15.213 3.654.402.155c1.596.605 2.85 1.09 2.803 2.906 0 1.34-.958 2.894-3.548 2.894a5.25 5.25 0 0 1-3.619-1.34l-.307-.261 1.253-1.85.39.367a4.1 4.1 0 0 0 1.183.688c.444.173.92.245 1.396.214.221 0 .438-.061.626-.178a.55.55 0 0 0 .225-.273.48.48 0 0 0-.154-.57 3 3 0 0 0-1.052-.474l-.272-.095-.201-.071c-1.384-.487-2.85-1.163-2.85-3.049a2.97 2.97 0 0 1 3.252-2.74 4.8 4.8 0 0 1 3.205 1.186l.319.261-1.183 1.886-.39-.332a2.92 2.92 0 0 0-1.963-.783c-.402 0-.84.202-.84.546s.462.581 1.325.913m-63.594 2.953a.88.88 0 0 1 .26-.711 1.7 1.7 0 0 1 1.182-.392h1.62v2.052a5.5 5.5 0 0 1-1.182.155h-.142a2.45 2.45 0 0 1-1.313-.392.97.97 0 0 1-.425-.712m-1.349 2.124v.06l.095.07h.141l.12.072q.336.195.709.308a7 7 0 0 0 1.56.285h.533a12 12 0 0 0 3.04-.51h.165V7.19a.5.5 0 0 0 0-.13v-.557a.2.2 0 0 0 0-.096v-.142l.024-.26a2.7 2.7 0 0 0-.639-.843 3.4 3.4 0 0 0-1.1-.653 5.3 5.3 0 0 0-.922-.213h-.65a6.05 6.05 0 0 0-3.064.854l-.118.083.958 1.495h.118a4.4 4.4 0 0 1 1.857-.487c.981 0 1.514.51 1.585.866v.795h-1.857c-2.153 0-3.43 1.186-3.43 3.096a2.63 2.63 0 0 0 .745 1.875q.06.082.13.154m37.132-6.12a2 2 0 0 0-.632 1.102h4.163a2.06 2.06 0 0 0-.861-1.279 2.05 2.05 0 0 0-1.505-.323c-.432.036-.841.21-1.165.5m.09-2.398a5.3 5.3 0 0 1 1.383-.213 4.4 4.4 0 0 1 2.53.791 4.4 4.4 0 0 1 1.62 2.103c.26.849.322 1.746.178 2.622v.083h-6.504v.119c.116.565.433 1.068.893 1.415a2.36 2.36 0 0 0 1.602.47 3.08 3.08 0 0 0 2.176-.936l.06-.06 1.478 1.377h-.06a4.34 4.34 0 0 1-2.672 1.518q-.588.09-1.183.095a4.4 4.4 0 0 1-3.773-1.85 5.2 5.2 0 0 1-.65-4.651 4.37 4.37 0 0 1 2.921-2.883M40.725 22.477h-2.058v-3.025h1.762c2.283 0 2.283 1.103 2.283 1.47 0 1.448-1.55 1.555-1.987 1.555m-2.058 2.265h2.176c.922 0 2.448.238 2.448 1.768s-1.573 1.649-2.507 1.649h-2.117zm5.192-1.352a3.32 3.32 0 0 0 1.324-2.764c0-2.242-1.584-3.476-4.446-3.476h-4.494v13.31h4.92c2.861 0 4.588-1.423 4.588-3.808a3.5 3.5 0 0 0-1.892-3.262m15.125-1.548a4.27 4.27 0 0 1 2.66-.902c2.212 0 3.49 1.471 3.537 4.045v5.433h-2.366v-5.113c0-1.945-.816-2.206-1.62-2.206-1.36 0-2.211.997-2.211 2.61v4.745h-2.366v-9.407h2.366zm-6.493 4.554v2.052a5.5 5.5 0 0 1-1.182.154h-.142a2.36 2.36 0 0 1-1.313-.392.93.93 0 0 1-.378-.7.86.86 0 0 1 .272-.711c.328-.28.752-.42 1.182-.392zm2.212-2.776a.2.2 0 0 0 0-.095v-.297l-.095-.356v-.249a2.9 2.9 0 0 0-.638-.854 3.2 3.2 0 0 0-1.1-.64 3.7 3.7 0 0 0-.934-.214h-.592a5.9 5.9 0 0 0-3.063.854l-.118.083.887 1.388v.119l.13-.06a4.34 4.34 0 0 1 1.857-.474c.981 0 1.514.498 1.584.866a.1.1 0 0 0 0 .06v.759h-1.998c-2.153 0-3.43 1.186-3.43 3.095a2.6 2.6 0 0 0 .733 1.863q.08.099.178.178l.154.119.118.082.13.072q.336.197.71.308h.094a6.7 6.7 0 0 0 1.561.273h.532a12 12 0 0 0 3.04-.51h.153v-6.37zm23.698-4.411a.7.7 0 0 1 .307.083.44.44 0 0 1 .142.308.43.43 0 0 1-.07.238.56.56 0 0 1-.356.177l-1.076.06-1.75.107q.014.077.032.156c.031.142.063.287.063.425q.015.255 0 .51h1.856a.39.39 0 0 1 .402.25.42.42 0 0 1 0 .284.39.39 0 0 1-.343.19l-1.927.13v.119a3.77 3.77 0 0 1-1.183 2.372 4 4 0 0 1-1.455.843l-.153.059.555.806 2.85 4.129H73.4l-1.289-1.91-1.94-2.752h-.827v4.662h-2.306V17.133h2.306v6.382h1.407s2.117.107 2.46-1.186l-1.868.107a.55.55 0 0 1-.533-.392 1 1 0 0 1 0-.166.56.56 0 0 1 .556-.57h1.975a2.8 2.8 0 0 0-.248-.948l-1.786.095a.616.616 0 0 1-.627-.617.63.63 0 0 1 .627-.63z" clip-rule="evenodd"/></svg>