<svg xmlns="http://www.w3.org/2000/svg" width="27.96" height="28.846" fill="none" viewBox="0 0 27.96 28.846"><path fill="#cc000a" fill-rule="evenodd" d="M24.275 1.813A9.65 9.65 0 0 0 18.208.01C14.66.01 10.84 1.374 6.76 4.067l-.106.083-.414.261-.32.213a26 26 0 0 0-2.365 1.84C1.83 8.147-.135 10.934.007 13.32a3.25 3.25 0 0 0 1.183 2.444c.75.56 1.667.848 2.602.818a12.4 12.4 0 0 0 5.913-2.111l.295-.19.816-.546.272-.19a31.5 31.5 0 0 1 7.096-3.95 5.4 5.4 0 0 1 1.798-.356q.39.001.769.095a2.36 2.36 0 0 1 1.726 1.34 6.13 6.13 0 0 1-.366 4.947 21.5 21.5 0 0 1-5.7 7.118 22.8 22.8 0 0 1-3.738 2.68h-.106q-.83.496-1.727.855h-.083q-.242.105-.496.178c-2.602.712-1.017-1.602-1.017-1.602a20 20 0 0 1 1.904-1.779c.354-.32.721-.664 1.088-1.044l.083-.083a2.68 2.68 0 0 0 1.04-1.98 2.37 2.37 0 0 0-.82-1.424 2.36 2.36 0 0 0-1.545-.546h-.118a4.8 4.8 0 0 0-2.791 1.186 9.3 9.3 0 0 0-1.88 2.124c-.734 1.103-2.153 3.926-.734 6.168a3.09 3.09 0 0 0 2.815 1.364 9.8 9.8 0 0 0 3.228-.7 23.8 23.8 0 0 0 4.6-2.372l.38-.237a34.4 34.4 0 0 0 4.434-3.322 20 20 0 0 0 6.374-9.134 11.56 11.56 0 0 0 .308-6.667 8.58 8.58 0 0 0-3.335-4.591" clip-rule="evenodd"/></svg>